<?xml version="1.0" standalone="no"?>
<!DOCTYPE svg PUBLIC "-//W3C//DTD SVG 20010904//EN"
 "http://www.w3.org/TR/2001/REC-SVG-20010904/DTD/svg10.dtd">
<svg version="1.0" xmlns="http://www.w3.org/2000/svg"
 width="700.000000pt" height="700.000000pt" viewBox="0 0 700.000000 700.000000"
 preserveAspectRatio="xMidYMid meet">
<metadata>
Created by potrace 1.11, written by Peter Selinger 2001-2013
</metadata>
<g transform="translate(0.000000,700.000000) scale(0.100000,-0.100000)"
fill="#000000" stroke="none">
<path d="M5637 5953 c-1 0 -103 -4 -227 -7 -291 -9 -312 -10 -455 -40 -28 -5
-137 -54 -185 -82 -30 -18 -109 -78 -175 -133 -73 -61 -141 -109 -173 -122
-49 -20 -58 -21 -106 -9 -110 26 -175 16 -396 -60 -96 -34 -179 -65 -184 -71
-17 -16 -31 -10 -55 29 -57 88 -166 157 -271 169 -169 20 -283 63 -418 157
-164 114 -133 111 -1177 91 -88 -1 -262 -4 -387 -6 l-228 -4 -1 -55 c0 -30 -2
-104 -4 -163 -2 -59 -6 -199 -9 -310 -13 -414 -18 -532 -23 -537 -2 -3 -145
-5 -316 -6 -263 0 -321 -3 -369 -18 -165 -48 -293 -168 -356 -332 l-26 -69 -2
-565 c-2 -521 -1 -571 16 -636 49 -191 214 -349 400 -384 30 -6 177 -11 327
-11 l271 -1 -5 -167 c-3 -91 -6 -253 -7 -360 l-1 -194 30 -3 c17 -2 57 -6 90
-9 33 -3 76 -7 95 -9 19 -3 64 -8 100 -11 89 -8 130 -20 170 -50 37 -28 110
-126 131 -178 24 -60 89 -131 165 -179 41 -27 77 -48 79 -48 3 0 76 -31 162
-70 208 -91 265 -106 433 -110 220 -5 271 -5 345 3 39 4 88 9 110 11 55 5 125
25 153 43 49 31 77 9 194 -147 47 -63 104 -134 127 -158 42 -45 116 -83 191
-99 45 -9 162 -9 210 0 56 11 137 49 168 78 136 128 185 304 137 495 -16 65
-16 70 1 101 16 31 20 33 73 34 134 1 198 23 283 98 56 50 81 110 104 249 23
145 18 137 82 156 149 46 326 128 429 197 88 60 257 214 308 281 l35 47 469 1
c265 0 493 5 523 10 138 26 289 141 356 272 58 113 59 136 57 743 -1 303 -5
566 -9 585 -28 130 -152 287 -276 347 -108 53 -132 56 -435 57 l-280 1 -1 35
c-1 19 -4 172 -8 340 -8 391 -17 717 -20 755 l-2 30 -118 0 c-65 0 -118 -1
-119 -2z m-51 -668 c4 -192 7 -381 8 -420 l1 -69 -2053 -1 c-1883 0 -2055 1
-2063 16 -4 9 -7 18 -4 20 2 2 6 101 9 219 10 344 17 504 22 509 2 2 68 5 146
6 79 2 330 6 558 10 430 8 471 8 505 1 11 -3 25 -5 32 -5 7 -1 49 -26 94 -57
107 -73 266 -146 349 -160 14 -3 48 -9 75 -14 28 -5 65 -12 84 -15 50 -9 65
-20 100 -74 80 -125 266 -176 400 -110 31 15 94 41 141 58 196 71 211 73 291
53 60 -15 158 -6 233 22 82 31 121 54 201 119 285 232 283 232 622 242 120 4
220 9 222 11 16 15 21 -49 27 -361z m-1661 -1085 c53 -146 109 -299 125 -340
15 -41 72 -194 125 -340 139 -379 132 -367 237 -375 96 -7 122 -7 236 -1 113
7 160 17 174 39 4 7 8 281 8 609 0 529 -2 598 -16 612 -8 9 -23 16 -32 17 -9
0 -26 2 -37 5 -11 2 -58 6 -105 8 -47 2 -91 5 -97 5 -7 1 -13 5 -13 9 0 10
901 8 945 -2 131 -29 202 -64 269 -130 80 -79 101 -131 101 -246 0 -91 -2 -98
-32 -146 -39 -59 -76 -95 -141 -132 -96 -55 -149 -65 -387 -68 -99 -1 -184 -2
-190 -3 -8 -1 -11 -223 -6 -497 1 -37 5 -44 34 -57 34 -16 108 -25 230 -26 37
-1 67 -5 67 -11 0 -7 -283 -10 -829 -10 -543 0 -832 3 -836 10 -4 6 18 10 57
11 64 0 108 4 165 14 58 10 58 28 -1 197 -30 84 -61 171 -70 193 l-16 41 -200
0 -200 0 -41 -126 c-44 -132 -52 -202 -29 -244 17 -32 80 -63 145 -71 27 -3
54 -10 59 -15 7 -7 -85 -10 -257 -10 -171 0 -267 4 -267 10 0 6 8 10 18 11 66
3 140 37 183 87 52 59 86 140 249 597 40 110 89 247 110 305 21 58 53 146 70
195 48 138 51 144 68 148 10 2 20 1 23 -2 4 -3 50 -125 104 -271z m-1384 255
c25 -7 78 -32 118 -55 81 -48 68 -50 153 29 21 19 41 31 45 27 9 -9 10 -426 1
-432 -7 -5 -17 20 -24 63 -8 51 -77 177 -123 226 -88 95 -183 139 -294 138
-76 -1 -94 -4 -149 -29 -85 -38 -130 -105 -131 -192 -1 -139 99 -213 393 -290
310 -83 385 -129 430 -265 31 -94 32 -224 1 -315 -54 -155 -186 -249 -361
-256 -146 -5 -263 32 -349 112 l-57 53 -59 -79 c-33 -43 -62 -77 -65 -75 -4 3
-5 506 -1 554 2 29 18 -5 35 -74 52 -214 145 -368 256 -425 50 -26 148 -47
223 -49 97 -3 213 64 251 144 43 91 25 204 -45 273 -55 55 -133 91 -334 152
-313 96 -395 152 -434 298 -27 98 -8 225 46 307 46 71 129 135 207 160 51 17
204 16 267 0z m-575 -7 c3 -4 -1 -8 -8 -9 -7 0 -49 -2 -93 -5 -108 -6 -175
-22 -177 -42 -1 -10 -2 -281 -3 -605 -1 -482 1 -591 12 -607 17 -25 87 -37
216 -39 26 -1 47 -5 47 -11 0 -7 -144 -10 -412 -10 -269 0 -409 3 -402 10 5 5
48 12 96 14 118 7 156 15 173 39 12 17 14 115 14 599 0 328 -4 589 -9 603 -14
36 -51 43 -268 54 -7 1 -11 5 -8 9 3 5 188 9 411 9 223 0 408 -4 411 -9z
m3093 -1684 c-48 -58 -221 -146 -419 -214 -160 -55 -210 -91 -244 -174 -25
-60 -39 -123 -52 -221 -12 -92 -10 -91 -116 -98 -145 -8 -229 -57 -305 -180
-65 -102 -75 -191 -38 -334 16 -60 11 -114 -12 -154 -24 -40 -56 -49 -154 -40
-16 1 -67 62 -178 212 -62 83 -127 137 -215 179 -63 30 -74 32 -140 27 -88 -7
-104 -10 -153 -35 -63 -33 -266 -45 -508 -31 -108 6 -115 8 -255 69 -246 106
-262 117 -296 189 -22 47 -105 167 -146 210 -79 83 -214 145 -343 157 -38 3
-73 8 -76 10 -3 1 -4 34 -3 71 1 37 3 137 5 221 l3 152 1829 0 c1678 0 1828
-1 1816 -16z"/>
<path d="M5109 4421 c-21 -17 -21 -25 -22 -347 l0 -329 154 1 c137 1 160 3
207 24 105 45 146 131 145 305 0 177 -46 274 -157 330 -55 27 -68 29 -183 31
-103 2 -127 -1 -144 -15z"/>
<path d="M3680 4105 c-6 -16 -38 -104 -70 -195 -32 -91 -70 -195 -84 -232
l-25 -68 189 0 c105 0 190 1 190 3 0 1 -42 119 -94 262 -90 247 -95 258 -106
230z"/>
</g>
</svg>
